<?xml version="1.0" standalone="no"?>
<!DOCTYPE svg PUBLIC "-//W3C//DTD SVG 20010904//EN"
 "http://www.w3.org/TR/2001/REC-SVG-20010904/DTD/svg10.dtd">
<svg version="1.0" xmlns="http://www.w3.org/2000/svg"
 width="500.000000pt" height="500.000000pt" viewBox="0 0 500.000000 500.000000"
 preserveAspectRatio="xMidYMid meet">

<g transform="translate(0.000000,500.000000) scale(0.100000,-0.100000)"
fill="#000000" stroke="none">
<path d="M2408 4814 c-3 -5 -6 -74 -7 -154 -1 -80 -8 -284 -16 -455 -8 -170
-15 -366 -15 -434 0 -205 -15 -126 -21 117 -13 454 -29 887 -35 905 -5 16 -57
17 -899 17 -492 0 -896 -4 -899 -8 -3 -5 229 -244 516 -533 286 -288 581 -586
656 -661 l136 -138 -111 0 c-92 0 -112 -3 -117 -16 -9 -25 -7 -54 5 -54 5 0 7
-5 3 -12 -12 -19 -14 -98 -3 -98 5 0 4 -9 -3 -20 -15 -24 -6 -34 21 -25 22 7
30 45 10 45 -8 0 -8 4 -1 13 14 17 14 97 -1 97 -7 0 -6 6 4 15 11 11 43 16
122 17 102 3 117 -1 117 -28 0 -2 -38 -4 -84 -4 -64 0 -88 -4 -100 -16 -14
-14 -16 -69 -16 -459 0 -244 3 -450 6 -459 6 -14 75 -16 680 -16 l674 0 10 26
c6 16 9 197 8 472 l-3 447 -102 3 c-57 1 -103 7 -103 11 0 13 27 21 45 14 16
-6 55 22 55 40 0 5 -10 7 -22 3 -15 -3 8 24 62 75 122 115 232 220 330 313 47
45 158 151 248 236 90 85 197 187 237 225 40 39 131 124 201 190 203 191 284
274 284 289 0 13 -80 15 -622 16 -343 0 -763 3 -934 6 -182 4 -313 3 -316 -2z
m134 -165 l27 -25 -65 -70 -66 -69 6 64 c3 35 6 93 6 129 l0 66 32 -35 c18
-19 45 -46 60 -60z m1617 64 c-8 -9 -32 -33 -53 -52 -22 -20 -64 -60 -94 -89
-60 -58 -75 -57 -70 3 3 36 6 39 98 87 52 27 99 53 104 58 17 17 29 11 15 -7z
m-1879 -365 c0 -51 3 -110 6 -130 l7 -38 -332 0 c-275 0 -335 2 -347 14 -8 8
-14 18 -14 21 0 4 -12 22 -27 40 -16 17 -35 42 -43 54 -8 13 -24 33 -35 45
-11 13 -32 37 -48 54 l-27 32 430 0 430 0 0 -92z m650 48 c0 -19 -4 -37 -9
-40 -5 -4 -22 -39 -37 -79 -15 -39 -30 -76 -34 -82 -4 -5 -11 -21 -15 -35 -4
-14 -19 -50 -32 -80 -47 -104 -53 -118 -53 -124 0 -6 -25 -64 -66 -152 -13
-28 -24 -54 -24 -58 0 -5 -7 -24 -16 -44 -9 -21 -20 -46 -24 -57 -5 -11 -22
-49 -38 -85 -16 -36 -42 -99 -58 -140 -16 -41 -32 -76 -36 -78 -5 -2 -8 -10
-8 -18 0 -8 -4 -22 -9 -32 -5 -9 -20 -42 -33 -72 -13 -30 -29 -66 -36 -80 -13
-29 -9 130 14 646 8 176 14 366 14 421 0 55 3 128 6 162 l7 61 243 0 244 0 0
-34z m920 25 c0 -5 -16 -22 -35 -39 -20 -16 -117 -108 -217 -203 -99 -96 -186
-179 -192 -184 -6 -6 -32 -30 -58 -54 l-48 -44 0 267 0 266 275 0 c151 0 275
-4 275 -9z m-939 -646 c-14 -22 -31 -47 -38 -55 -7 -8 -54 -73 -105 -145 -51
-71 -96 -134 -100 -140 -22 -27 -144 -200 -155 -219 -7 -12 -22 -31 -34 -42
-22 -19 -22 -19 -14 1 4 11 10 30 12 43 3 12 9 22 13 22 4 0 11 11 14 25 4 14
17 49 30 78 12 28 29 68 36 87 7 19 17 40 21 45 4 6 21 46 39 90 17 44 42 103
55 131 14 28 25 58 25 67 0 10 5 17 10 17 6 0 10 7 10 15 0 8 4 23 9 33 4 9
15 33 23 52 8 19 20 46 26 60 37 85 51 119 63 153 7 20 17 37 21 37 4 0 8 7 8
15 0 8 10 38 23 66 l22 52 5 -224 6 -224 -25 -40z m-616 107 c-4 -4 -24 12
-126 96 -14 12 -9 21 50 78 l66 65 7 -117 c5 -65 6 -119 3 -122z m-11 -174 c3
-62 10 -196 15 -298 6 -102 13 -222 17 -267 4 -48 3 -83 -2 -83 -5 0 -22 13
-39 29 -34 34 -396 401 -589 599 l-130 132 361 0 360 0 7 -112z m906 87 c0 -4
-65 -67 -223 -215 -32 -30 -89 -85 -126 -122 -37 -38 -69 -68 -72 -68 -2 0
-54 -48 -115 -107 -138 -135 -156 -150 -119 -96 17 22 57 79 89 125 33 45 62
85 66 88 4 3 15 20 25 38 11 17 23 32 27 32 4 0 8 5 8 10 0 9 100 151 120 170
10 10 70 101 70 106 0 3 10 14 23 25 18 15 39 18 125 19 56 0 102 -2 102 -5z
m-1446 -443 c3 -5 -1 -9 -9 -9 -8 0 -12 4 -9 9 3 4 7 8 9 8 2 0 6 -4 9 -8z
m461 -276 c63 -64 115 -120 115 -126 0 -26 37 -5 94 53 123 124 172 155 252
156 54 1 65 -14 66 -91 2 -99 -39 -175 -160 -294 -148 -147 -130 -143 -221
-47 -68 73 -99 100 -179 161 -13 9 -31 24 -40 32 -10 8 -38 28 -62 44 -79 51
-100 79 -100 134 0 49 18 83 50 94 44 15 72 -3 185 -116z m-205 -196 c0 -5 -4
-10 -10 -10 -5 0 -10 5 -10 10 0 6 5 10 10 10 6 0 10 -4 10 -10z m965 0 c3 -5
1 -10 -4 -10 -6 0 -11 5 -11 10 0 6 2 10 4 10 3 0 8 -4 11 -10z m-1005 -86 c0
-8 -19 -13 -24 -6 -3 5 1 9 9 9 8 0 15 -2 15 -3z m35 -12 c-3 -3 -11 0 -18 7
-9 10 -8 11 6 5 10 -3 15 -9 12 -12z m0 -230 c-3 -3 -11 0 -18 7 -9 10 -8 11
6 5 10 -3 15 -9 12 -12z"/>
<path d="M2946 3450 c-17 -18 -17 -20 -2 -26 19 -7 46 12 46 32 0 20 -22 16
-44 -6z"/>
<path d="M3007 3452 c-21 -23 -21 -32 -3 -32 20 0 41 29 29 41 -6 6 -15 3 -26
-9z"/>
<path d="M3052 3448 c-19 -19 -14 -31 13 -26 22 5 25 2 25 -23 0 -16 5 -29 10
-29 6 0 5 -9 -2 -21 -10 -17 -10 -23 -1 -26 10 -3 10 -9 0 -24 -10 -16 -9 -22
3 -30 11 -8 12 -12 3 -16 -7 -2 -13 -13 -13 -23 0 -10 6 -21 13 -23 10 -4 10
-6 0 -6 -16 -1 -17 -33 -1 -49 9 -9 9 -12 0 -12 -7 0 -12 -9 -12 -20 0 -11 6
-20 13 -20 8 0 7 -4 -3 -10 -12 -8 -13 -13 -3 -29 10 -15 10 -21 0 -24 -9 -3
-9 -9 0 -25 7 -12 9 -23 4 -26 -11 -7 -11 -96 0 -96 5 0 4 -10 -3 -21 -10 -17
-10 -23 -1 -26 10 -3 10 -9 0 -24 -10 -16 -9 -21 3 -29 13 -9 13 -11 0 -20
-12 -8 -13 -13 -2 -30 7 -12 8 -20 2 -20 -14 0 -12 -37 3 -43 10 -4 10 -6 0
-6 -15 -1 -18 -41 -3 -41 6 0 5 -8 -2 -20 -11 -17 -10 -22 2 -30 13 -9 13 -11
0 -20 -12 -8 -13 -13 -2 -30 7 -12 8 -20 2 -20 -5 0 -10 -9 -10 -20 0 -11 5
-20 11 -20 8 0 8 -4 1 -12 -14 -17 -13 -91 1 -100 9 -6 9 -8 0 -8 -7 0 -13 -9
-13 -20 0 -11 5 -20 10 -20 6 0 5 -8 -2 -20 -11 -17 -10 -22 2 -30 10 -7 11
-12 4 -17 -12 -9 -16 -85 -5 -93 4 -3 1 -16 -6 -30 -11 -22 -13 -10 -13 93 0
64 -4 117 -8 117 -4 0 -16 14 -25 30 l-18 30 -659 0 -659 0 -24 -31 c-27 -35
-51 -31 -41 7 4 15 2 24 -5 24 -8 0 -7 6 1 21 10 17 10 23 1 26 -9 3 -9 10 -1
29 14 30 6 39 -21 22 -23 -14 -28 -44 -8 -51 9 -4 9 -6 0 -6 -15 -1 -18 -41
-3 -41 6 0 5 -8 -2 -20 -11 -17 -10 -22 2 -31 11 -8 12 -12 3 -16 -17 -6 -17
-40 0 -47 10 -5 9 -7 0 -12 -7 -3 -13 -12 -13 -19 0 -7 6 -16 13 -19 10 -5 10
-7 0 -12 -19 -8 -16 -34 4 -34 15 0 15 -2 1 -17 -9 -10 -15 -30 -13 -45 2 -20
-7 -37 -40 -70 -46 -47 -85 -112 -85 -141 0 -10 5 -27 10 -38 10 -19 30 -19
854 -19 l843 0 18 34 18 34 -32 52 c-18 29 -39 60 -47 67 -12 12 -14 126 -14
720 0 657 -1 704 -17 692 -13 -11 -17 -11 -20 -1 -6 15 -25 16 -41 0z m-829
-1123 c-3 -9 -8 -14 -10 -11 -3 3 -2 9 2 15 9 16 15 13 8 -4z m247 -119 c0 -2
-7 -7 -16 -10 -8 -3 -12 -2 -9 4 6 10 25 14 25 6z"/>
<path d="M1606 3224 c-17 -16 -20 -27 -10 -37 10 -10 44 17 44 35 0 22 -14 23
-34 2z"/>
<path d="M1604 3169 c-18 -20 -18 -21 1 -35 10 -8 13 -14 7 -14 -7 0 -12 -9
-12 -20 0 -21 7 -25 27 -12 12 8 16 102 4 102 -4 0 -16 -9 -27 -21z"/>
<path d="M1614 3072 c-7 -4 -12 -36 -12 -80 0 -61 3 -72 15 -68 8 3 17 6 19 6
2 0 4 9 4 20 0 11 -5 20 -10 20 -6 0 -5 8 2 20 11 17 10 22 -2 31 -11 8 -12
12 -2 16 6 2 12 13 12 24 0 20 -8 23 -26 11z"/>
<path d="M1613 2913 c-7 -2 -13 -13 -13 -24 0 -10 6 -19 13 -19 9 0 9 -2 0 -8
-6 -4 -11 -29 -11 -55 0 -41 2 -48 16 -43 15 5 15 4 0 -8 -21 -15 -24 -42 -5
-49 9 -4 8 -8 -3 -16 -12 -9 -13 -14 -2 -31 7 -12 8 -20 2 -20 -5 0 -10 -9
-10 -20 0 -24 13 -26 34 -4 18 18 21 44 5 44 -8 0 -9 4 0 13 6 8 8 16 5 20 -3
3 -6 55 -5 116 0 61 -3 111 -7 110 -4 0 -13 -3 -19 -6z"/>
<path d="M1613 2593 c-7 -2 -13 -13 -13 -23 0 -10 6 -21 13 -24 10 -5 10 -7 0
-12 -14 -6 -18 -44 -5 -44 12 0 42 34 42 48 0 7 -5 12 -10 12 -7 0 -7 6 0 19
5 11 10 22 10 25 0 7 -20 7 -37 -1z"/>
<path d="M745 1669 c-90 -49 -143 -112 -175 -205 -74 -213 69 -435 279 -434
53 0 191 30 273 59 l57 19 27 -35 c29 -38 93 -73 134 -73 39 0 101 41 135 88
26 38 30 52 29 105 0 67 -23 125 -66 164 -29 27 -89 53 -123 53 -71 0 -142
-66 -152 -141 -7 -52 -38 -72 -143 -95 -113 -26 -210 0 -239 64 -28 60 3 155
55 168 18 5 47 -3 98 -25 84 -37 118 -39 147 -8 47 50 51 104 10 169 -56 88
-148 138 -256 137 -38 0 -79 -5 -90 -10z m589 -381 c19 -27 21 -89 4 -106 -34
-34 -88 7 -88 66 0 21 5 43 12 50 19 19 55 14 72 -10z"/>
<path d="M2729 1554 c-19 -21 -24 -36 -23 -80 0 -46 5 -59 30 -85 28 -30 31
-31 103 -27 l74 3 37 -120 c52 -173 89 -237 148 -262 33 -14 38 -13 83 11 l49
25 42 -24 c70 -40 136 -31 187 26 l29 31 40 -40 c90 -90 199 -74 282 39 30 42
32 41 44 -12 8 -38 44 -79 69 -79 53 1 63 34 37 131 -24 91 -25 113 -4 130 24
20 48 -15 64 -93 22 -109 54 -148 118 -148 66 0 115 87 97 170 -9 41 -20 38
-39 -10 -11 -27 -22 -40 -35 -40 -25 0 -35 15 -56 80 -24 75 -53 126 -81 140
-26 14 -65 7 -89 -16 -9 -10 -20 -13 -25 -8 -4 5 -24 61 -44 125 -20 64 -45
124 -55 133 -45 41 -86 -7 -76 -88 3 -27 22 -99 42 -159 47 -146 40 -192 -34
-224 -28 -11 -38 -11 -66 1 -66 27 -98 103 -56 129 13 8 23 5 44 -11 34 -27
49 -28 75 -2 13 13 20 33 20 59 0 34 -5 44 -33 65 -24 18 -46 26 -76 26 -83 0
-130 -43 -161 -148 -12 -40 -30 -82 -41 -93 -24 -24 -80 -25 -110 0 l-23 18
36 7 c36 7 56 23 78 65 10 19 9 31 -4 66 -25 64 -58 90 -116 90 -87 0 -136
-73 -128 -194 3 -50 1 -56 -17 -56 -15 0 -28 17 -51 62 -34 70 -89 221 -82
228 2 3 38 11 79 20 143 29 164 117 33 137 -122 18 -232 28 -310 28 -74 0 -83
-2 -105 -26z m605 -270 c30 -30 10 -80 -30 -72 -30 6 -39 33 -21 62 20 30 30
32 51 10z"/>
<path d="M1525 1375 c-17 -16 -25 -35 -25 -57 1 -44 81 -281 107 -315 18 -25
23 -27 49 -18 15 6 37 25 47 43 18 31 19 36 3 97 -20 79 -20 99 -2 114 23 19
42 -22 55 -119 13 -100 38 -136 85 -124 45 11 52 41 31 148 -17 94 -16 116 9
116 17 0 31 -34 55 -130 36 -142 86 -181 168 -130 l33 20 6 -28 c19 -89 37
-112 83 -112 27 0 64 49 57 75 -3 11 -8 29 -12 41 -5 19 -1 22 43 27 38 4 53
12 76 39 15 18 31 45 34 61 6 30 23 37 23 10 0 -31 47 -120 71 -137 32 -22 75
-20 110 5 l29 21 31 -26 c36 -31 38 -31 67 -10 44 31 45 55 2 162 -22 54 -45
122 -52 151 -15 68 -45 92 -83 67 -28 -18 -40 -55 -31 -89 39 -136 40 -157 5
-157 -24 0 -33 23 -49 130 -15 103 -30 130 -70 130 -41 0 -64 -37 -57 -91 6
-48 5 -47 -26 12 -45 86 -130 113 -196 65 -31 -23 -35 -24 -57 -10 -30 20 -59
10 -74 -25 -10 -25 -8 -41 14 -110 29 -92 32 -115 14 -109 -7 3 -31 48 -53
102 -69 168 -126 211 -196 148 l-32 -28 -25 23 c-36 33 -81 31 -117 -7 l-28
-29 -28 39 c-34 47 -59 51 -94 15z m754 -104 c20 -20 19 -52 -2 -78 -15 -21
-45 -15 -62 11 -14 20 -14 29 -4 48 22 42 40 47 68 19z"/>
<path d="M1625 798 c-51 -28 -65 -50 -65 -102 0 -61 29 -173 67 -253 15 -32
27 -62 27 -68 1 -11 -30 -18 -174 -42 -185 -30 -511 -20 -613 19 -36 14 -46
52 -21 80 17 18 27 20 89 14 39 -3 90 -8 115 -12 40 -5 50 -3 78 21 71 59 19
122 -118 144 -216 35 -375 -12 -434 -131 -31 -61 -32 -80 -7 -133 52 -116 201
-169 476 -168 189 0 409 38 598 104 l58 21 48 -45 c58 -54 112 -72 194 -63
110 11 177 64 185 145 4 41 0 58 -22 95 -30 51 -68 66 -116 46 -36 -15 -44
-37 -35 -99 7 -52 -1 -64 -47 -76 -64 -16 -119 115 -139 328 -13 129 -20 147
-71 173 -32 17 -46 17 -73 2z"/>
<path d="M3898 659 c-76 -90 -208 -164 -375 -208 -44 -12 -67 -38 -57 -65 10
-26 44 -29 214 -16 167 12 213 8 243 -18 21 -19 22 -55 2 -72 -22 -18 -220 -6
-310 18 -91 25 -179 67 -224 107 -76 68 -143 82 -201 43 -35 -24 -42 -35 -57
-83 -6 -23 -14 -30 -33 -30 -21 0 -28 9 -48 65 -13 35 -30 73 -39 82 -21 24
-58 23 -83 -2 -22 -22 -23 -29 -11 -81 10 -43 1 -62 -25 -57 -14 2 -23 22 -37
73 -22 85 -30 95 -77 95 -50 0 -70 -24 -70 -83 0 -49 -8 -58 -62 -71 -24 -6
-29 -2 -42 27 -33 81 -133 147 -231 154 -51 4 -65 1 -95 -19 -66 -44 -85 -123
-46 -184 24 -35 98 -74 155 -81 28 -3 48 -9 46 -14 -3 -4 -31 -13 -63 -19
-122 -26 -155 -73 -85 -124 23 -17 31 -17 80 -6 85 18 172 68 211 120 42 55
42 55 118 71 59 12 61 12 99 -14 46 -31 118 -36 165 -12 27 14 33 14 60 0 36
-19 100 -19 125 -1 17 12 23 11 54 -15 46 -37 123 -41 165 -8 l27 21 94 -31
c130 -42 242 -55 405 -48 161 7 231 28 279 83 35 39 38 61 16 104 -30 57 -98
91 -238 114 l-72 13 42 21 c55 28 112 79 124 110 16 42 -23 91 -73 92 -20 0
-37 -13 -70 -51z m-1373 -299 c0 -19 -41 -25 -60 -10 -22 18 -8 32 28 28 20
-2 32 -8 32 -18z m813 -32 c3 -13 -3 -18 -22 -18 -27 0 -41 14 -31 31 10 16
49 6 53 -13z"/>
<path d="M1821 604 c-21 -27 -20 -35 7 -66 34 -40 132 -12 132 37 0 56 -102
77 -139 29z"/>
<path d="M1991 604 c-25 -31 -25 -35 -8 -57 35 -49 139 -31 145 25 7 57 -98
82 -137 32z"/>
<path d="M1415 563 c-62 -13 -105 -53 -105 -97 0 -12 -10 -16 -39 -16 -23 0
-46 -7 -56 -16 -15 -15 -15 -18 1 -35 15 -17 33 -19 170 -19 125 0 155 3 168
16 9 8 16 19 16 24 0 17 -38 30 -84 30 -49 0 -76 7 -76 21 0 5 11 9 24 9 68 0
105 40 67 72 -23 17 -44 20 -86 11z"/>
<path d="M2595 205 c-31 -30 -31 -48 -3 -75 28 -26 82 -26 108 0 l20 20 30
-21 c48 -36 130 -6 130 47 0 47 -89 72 -138 38 -20 -14 -24 -14 -44 0 -33 23
-75 20 -103 -9z"/>
<path d="M2972 214 c-51 -36 -1 -111 67 -100 46 7 75 37 68 68 -11 44 -91 63
-135 32z"/>
</g>
</svg>
