<?xml version="1.0" standalone="no"?>
<!DOCTYPE svg PUBLIC "-//W3C//DTD SVG 20010904//EN"
 "http://www.w3.org/TR/2001/REC-SVG-20010904/DTD/svg10.dtd">
<svg version="1.0" xmlns="http://www.w3.org/2000/svg"
 width="512.000000pt" height="512.000000pt" viewBox="0 0 512.000000 512.000000"
 preserveAspectRatio="xMidYMid meet">

<g transform="translate(0.000000,512.000000) scale(0.100000,-0.100000)"
fill="#000000" stroke="none">
<path d="M2608 4554 c-3 -5 -6 -63 -7 -129 -1 -66 -8 -241 -16 -390 -8 -148
-15 -319 -16 -380 -1 -184 -16 -88 -23 145 -10 358 -25 723 -30 737 -4 10
-172 13 -861 13 -470 0 -855 -3 -855 -6 0 -7 17 -23 185 -174 71 -63 178 -160
238 -215 60 -55 182 -165 271 -244 88 -79 217 -197 286 -262 69 -65 156 -146
193 -181 l68 -63 -103 -5 -103 -5 -3 -27 c-2 -17 1 -28 9 -28 8 0 8 -4 2 -12
-12 -16 -13 -78 -1 -78 4 0 3 -10 -4 -21 -11 -18 -11 -23 0 -26 10 -4 10 -8 1
-19 -8 -10 -8 -18 0 -27 8 -10 7 -17 -2 -26 -9 -10 -9 -15 -1 -18 7 -2 10 -13
7 -23 -3 -11 -1 -20 3 -20 21 1 31 17 31 50 0 19 -5 38 -11 42 -8 5 -7 8 2 8
6 0 12 7 12 15 0 8 -5 15 -11 15 -8 0 -7 5 2 16 10 13 10 17 0 24 -9 5 -10 13
-5 21 12 20 13 79 0 79 -6 0 -4 7 4 15 16 15 197 24 219 11 26 -16 -5 -26 -78
-26 -56 0 -82 -4 -91 -14 -8 -11 -13 -118 -16 -388 -2 -205 -1 -381 2 -390 5
-17 45 -18 654 -18 l649 0 6 33 c3 17 4 199 3 402 l-3 370 -97 3 c-54 1 -98 7
-98 12 0 11 12 13 46 11 11 -1 27 5 34 14 12 14 11 18 -1 25 -11 8 -10 12 8
25 12 8 28 21 35 28 20 18 88 77 142 122 26 22 60 51 75 65 16 14 66 57 112
95 45 39 119 102 163 141 45 39 92 79 105 90 50 39 187 159 202 176 9 10 19
18 23 18 7 0 25 14 54 41 9 9 69 60 132 114 63 53 122 104 130 113 8 10 36 35
63 56 26 21 47 45 47 52 0 12 -96 14 -597 14 -329 0 -729 3 -889 7 -171 3
-293 2 -296 -3z m139 -151 c12 -10 4 -22 -43 -68 -31 -31 -58 -54 -60 -52 -2
1 -1 49 3 106 l6 102 40 -38 c23 -21 47 -44 54 -50z m1492 34 c-61 -57 -149
-131 -160 -135 -5 -2 -9 15 -9 37 l0 41 98 49 c53 27 102 49 107 50 6 0 -11
-18 -36 -42z m-1747 -309 c2 -57 2 -106 0 -110 -2 -5 -144 -8 -317 -8 -295 0
-315 1 -327 19 -18 25 -89 106 -139 159 l-41 42 410 0 410 0 4 -102z m616 81
c1 -9 -27 -78 -64 -155 -105 -220 -144 -304 -143 -309 0 -3 -11 -27 -25 -53
-24 -47 -72 -147 -141 -297 -20 -44 -61 -129 -91 -190 l-53 -110 5 155 c3 85
12 278 20 429 8 151 14 313 14 360 0 47 3 110 7 139 l6 52 231 -2 c201 -3 231
-5 234 -19z m872 12 c0 -11 -12 -23 -67 -66 -20 -16 -60 -50 -88 -74 -27 -24
-63 -55 -80 -69 -16 -14 -61 -53 -100 -86 -38 -34 -96 -83 -127 -109 l-58 -49
0 231 0 231 260 0 c153 0 260 -4 260 -9z m-928 -604 c-32 -40 -107 -134 -168
-211 -189 -240 -237 -297 -228 -271 4 11 12 26 18 34 6 8 10 16 8 18 -1 2 14
38 34 81 83 174 137 290 156 332 11 25 44 95 73 155 29 61 71 149 94 196 23
47 41 90 41 95 0 6 6 16 13 23 10 10 13 -27 15 -184 l2 -196 -58 -72z m-552
238 l0 -106 -42 29 c-24 17 -54 39 -67 51 l-23 20 58 56 c33 30 62 55 67 55 4
0 7 -47 7 -105z m-6 -302 c4 -82 9 -182 11 -223 2 -41 7 -122 11 -179 5 -76 4
-103 -5 -100 -6 2 -46 36 -89 75 -42 40 -129 118 -192 175 -63 57 -155 142
-205 189 -49 47 -121 113 -159 148 l-69 62 345 0 345 0 7 -147z m821 91 c-22
-20 -68 -58 -102 -85 -34 -27 -63 -53 -65 -57 -2 -4 -25 -25 -53 -47 -27 -22
-59 -49 -71 -61 -12 -11 -44 -38 -70 -60 -27 -21 -54 -43 -60 -49 -6 -5 -37
-32 -69 -60 -32 -27 -70 -60 -83 -72 -38 -35 -45 -30 -11 8 12 13 33 40 48 59
14 19 28 37 31 40 3 3 28 34 55 70 28 36 56 71 63 78 7 8 25 30 40 50 15 21
32 42 37 48 30 33 56 66 94 117 l42 57 107 0 107 -1 -40 -35z m-1005 -491 c27
-19 69 -56 163 -145 33 -32 67 -58 75 -58 8 0 27 13 41 28 14 15 48 46 76 68
27 21 57 46 67 54 40 33 147 51 166 28 16 -21 21 -80 10 -131 -9 -45 -72 -140
-105 -160 -8 -5 -26 -20 -41 -35 -57 -56 -116 -102 -130 -102 -8 0 -57 41
-109 90 -52 50 -99 90 -104 90 -9 0 -80 47 -89 58 -3 4 -22 16 -43 27 -68 36
-97 69 -97 113 0 54 29 84 85 91 6 0 22 -7 35 -16z m-322 -208 c-3 -3 -9 2
-12 12 -6 14 -5 15 5 6 7 -7 10 -15 7 -18z m227 -133 c-3 -3 -11 0 -18 7 -9
10 -8 11 6 5 10 -3 15 -9 12 -12z"/>
<path d="M3123 3385 c-7 -8 -13 -16 -13 -19 0 -8 75 -3 88 7 8 6 12 6 12 -2 0
-17 42 -9 48 8 3 10 -2 12 -21 7 -14 -3 -29 -1 -32 4 -5 8 -12 7 -23 -2 -12
-10 -16 -10 -19 0 -6 16 -25 15 -40 -3z"/>
<path d="M3272 3378 c-14 -17 -12 -108 2 -108 6 0 4 -5 -4 -10 -12 -8 -13 -13
-2 -30 7 -11 8 -20 3 -20 -12 0 -11 -152 2 -167 6 -8 6 -13 0 -13 -5 0 -10
-38 -10 -85 0 -47 4 -85 9 -85 5 0 6 -6 1 -12 -12 -20 -13 -168 -1 -168 6 0 6
-6 -2 -15 -10 -12 -10 -18 0 -30 7 -9 8 -15 2 -15 -6 0 -9 -65 -8 -185 0 -102
-2 -193 -6 -203 -4 -9 -7 27 -7 81 -1 91 -3 99 -28 127 l-26 30 -627 0 -627 0
-23 -25 c-24 -26 -46 -24 -35 3 3 8 0 19 -7 23 -9 6 -9 11 1 22 7 9 8 18 3 21
-5 3 -7 17 -4 32 4 24 3 25 -17 13 -23 -15 -28 -35 -8 -42 10 -4 10 -6 0 -6
-7 -1 -13 -10 -13 -20 0 -11 6 -22 13 -24 10 -4 10 -6 0 -6 -15 -1 -18 -31 -3
-31 6 0 5 -8 -2 -20 -11 -17 -10 -22 2 -30 13 -9 13 -11 0 -20 -13 -9 -13 -11
0 -21 11 -8 12 -12 3 -16 -16 -6 -17 -33 -2 -33 8 0 8 -4 0 -13 -6 -8 -9 -23
-7 -34 3 -14 -13 -38 -50 -77 -65 -68 -80 -100 -63 -133 l12 -23 800 0 800 0
18 22 c27 30 24 39 -22 99 l-42 52 0 603 c0 332 -4 604 -8 604 -3 0 -11 -6
-17 -12z m-152 -962 c0 -3 -4 -8 -10 -11 -5 -3 -10 -1 -10 4 0 6 5 11 10 11 6
0 10 -2 10 -4z"/>
<path d="M1841 2995 c2 -68 7 -76 30 -48 11 13 11 17 1 21 -10 3 -10 7 -1 19
10 12 10 16 -2 23 -11 7 -11 12 -1 22 18 18 15 28 -8 28 -18 0 -20 -6 -19 -65z"/>
<path d="M1853 2923 c-9 -3 -13 -26 -13 -68 0 -41 4 -65 13 -68 10 -4 10 -6 0
-6 -7 -1 -13 -7 -13 -15 0 -8 6 -17 13 -20 10 -5 10 -7 0 -12 -7 -3 -13 -12
-13 -19 0 -7 6 -16 13 -18 10 -4 10 -6 0 -6 -7 -1 -13 -8 -13 -17 0 -9 7 -14
18 -12 15 3 17 18 18 131 1 70 -2 129 -5 131 -3 2 -12 1 -18 -1z"/>
<path d="M1843 2633 c-4 -9 -1 -19 5 -21 8 -2 8 -8 0 -22 -15 -23 -4 -37 16
-21 19 16 19 81 0 81 -8 0 -18 -8 -21 -17z"/>
<path d="M983 1830 c-197 -113 -187 -407 17 -499 78 -36 190 -29 363 21 l68
19 39 -35 c43 -39 105 -62 142 -53 38 10 90 49 115 86 31 45 29 95 -4 161 -37
71 -93 104 -171 97 -75 -5 -117 -48 -136 -137 -6 -31 -72 -58 -159 -67 -135
-14 -207 25 -207 112 0 35 6 51 25 70 31 31 60 31 135 0 74 -31 104 -31 135
-1 47 47 45 97 -6 160 -50 60 -136 96 -229 96 -65 0 -82 -4 -127 -30z m601
-302 c20 -29 20 -72 0 -92 -21 -22 -31 -20 -59 9 -29 28 -32 61 -8 87 22 24
49 23 67 -4z"/>
<path d="M2916 1757 c-36 -36 -36 -94 1 -138 27 -31 27 -32 100 -26 l72 5 31
-96 c40 -122 71 -183 110 -216 38 -31 82 -34 126 -7 32 19 32 19 80 -5 26 -13
56 -24 66 -24 31 0 92 29 110 53 19 24 18 24 82 -27 71 -56 183 -38 243 40 31
42 39 42 47 4 6 -34 47 -80 70 -80 20 0 46 28 46 48 0 10 -9 48 -19 86 -20 72
-19 91 4 100 24 9 42 -19 60 -93 19 -79 44 -109 98 -118 32 -5 41 -1 72 30 33
33 36 41 33 83 -4 59 -22 67 -42 20 -26 -62 -49 -49 -90 53 -14 36 -36 75 -48
88 -25 27 -79 31 -102 8 -8 -8 -19 -15 -24 -15 -5 0 -24 44 -42 98 -41 120
-54 142 -85 142 -55 0 -58 -67 -10 -205 19 -55 35 -113 35 -130 0 -41 -23 -71
-64 -85 -80 -26 -179 73 -114 114 13 8 21 6 36 -7 26 -24 68 -22 86 5 25 36
20 64 -19 94 -31 23 -42 26 -92 22 -49 -4 -61 -10 -89 -40 -18 -20 -39 -59
-48 -90 -8 -30 -24 -62 -34 -71 -22 -20 -92 -23 -110 -5 -16 16 -15 31 1 25
24 -9 73 20 86 51 11 26 10 36 -5 67 -19 41 -66 75 -102 75 -39 0 -92 -31
-110 -64 -10 -20 -16 -53 -15 -93 1 -55 -2 -63 -18 -63 -10 0 -26 11 -35 25
-27 42 -95 207 -90 220 2 7 28 15 57 19 103 14 154 55 115 95 -20 20 -138 38
-307 47 l-127 7 -26 -26z m582 -265 c-2 -23 -8 -27 -33 -27 -23 0 -31 5 -33
21 -2 12 4 29 13 38 24 24 57 4 53 -32z"/>
<path d="M1793 1619 c-33 -12 -56 -54 -48 -86 11 -47 76 -217 91 -241 21 -32
70 -27 97 10 20 27 20 28 3 92 -19 69 -17 96 8 96 21 0 34 -27 42 -91 7 -62
29 -115 50 -123 18 -7 56 7 72 27 10 12 10 29 -3 86 -18 79 -17 116 5 116 15
0 29 -31 56 -128 21 -78 49 -109 97 -109 21 0 49 7 62 16 27 18 27 18 40 -39
9 -41 33 -65 66 -65 44 0 62 25 54 77 l-6 43 41 0 c34 0 48 6 71 31 16 17 32
42 35 55 8 30 20 23 27 -15 8 -40 61 -98 98 -106 21 -5 40 -1 64 14 l35 21 21
-21 c27 -27 67 -21 92 13 l21 28 -32 67 c-18 38 -43 100 -55 138 -21 66 -24
70 -54 73 -25 3 -35 -2 -49 -22 -14 -23 -15 -32 -4 -69 19 -64 18 -121 -1
-125 -20 -4 -35 32 -50 123 -12 76 -30 105 -64 105 -32 0 -55 -31 -55 -76 l-1
-39 -16 30 c-25 48 -54 75 -95 87 -33 10 -43 8 -86 -14 -43 -23 -50 -23 -70
-10 -19 13 -25 12 -47 -2 -31 -20 -31 -41 0 -131 23 -67 24 -92 4 -79 -6 3
-27 43 -48 87 -52 113 -82 147 -130 147 -25 0 -44 -7 -56 -20 -10 -11 -22 -20
-27 -20 -6 0 -21 9 -35 20 -35 27 -65 25 -103 -6 -30 -26 -31 -26 -45 -8 -8
11 -15 22 -15 26 0 15 -36 25 -57 17z m688 -99 c35 -19 15 -90 -26 -90 -14 0
-45 37 -45 52 0 9 37 48 46 48 3 0 14 -5 25 -10z"/>
<path d="M1845 1098 c-11 -6 -26 -18 -32 -26 -30 -38 -4 -167 57 -280 19 -36
25 -55 17 -58 -42 -15 -237 -37 -377 -41 -269 -8 -440 28 -404 85 20 31 58 37
153 23 78 -11 93 -10 120 3 31 17 49 55 36 77 -27 43 -232 78 -351 59 -84 -14
-161 -53 -192 -99 -45 -68 -42 -109 13 -170 70 -77 182 -104 425 -104 182 0
275 12 498 68 l134 34 32 -32 c91 -91 308 -69 360 36 17 36 17 40 1 83 -9 24
-26 51 -38 59 -28 20 -77 19 -106 -1 -21 -15 -22 -21 -16 -70 6 -52 6 -54 -21
-65 -36 -13 -70 -4 -88 24 -27 41 -55 144 -66 238 -6 52 -13 104 -15 116 -10
42 -93 67 -140 41z"/>
<path d="M4019 982 c-25 -26 -75 -64 -110 -85 -58 -34 -95 -48 -238 -89 -56
-16 -75 -43 -46 -64 17 -13 41 -14 150 -7 199 12 250 10 274 -11 12 -11 21
-27 21 -37 0 -33 -37 -42 -144 -35 -165 11 -269 42 -378 113 -37 25 -81 48
-96 53 -61 17 -136 -18 -147 -69 -7 -35 -29 -55 -49 -48 -8 3 -25 34 -37 67
-25 70 -52 90 -97 74 -25 -9 -27 -14 -27 -69 0 -53 -2 -60 -20 -60 -16 0 -24
13 -40 60 -27 81 -30 85 -74 85 -46 0 -66 -20 -63 -64 3 -38 -19 -62 -60 -68
-23 -2 -32 4 -57 43 -57 90 -214 140 -298 96 -35 -18 -63 -62 -63 -97 0 -60
93 -130 172 -130 57 0 46 -17 -19 -30 -114 -24 -141 -58 -81 -103 25 -19 32
-19 82 -8 84 19 169 65 200 109 22 33 34 40 84 50 78 16 90 15 118 -7 37 -29
93 -35 142 -15 33 12 49 14 70 6 54 -21 82 -22 112 -7 27 14 31 14 66 -10 46
-31 106 -33 152 -5 l32 20 73 -24 c110 -37 219 -49 391 -43 165 5 221 19 268
64 82 78 -21 172 -209 190 -65 6 -80 16 -40 27 38 9 113 64 125 91 14 30 3 58
-28 75 -37 20 -64 11 -111 -38z m-1300 -246 c9 -11 7 -15 -13 -20 -30 -7 -56
2 -56 20 0 18 54 19 69 0z m778 -32 c5 -14 -22 -25 -42 -18 -8 4 -15 13 -15
21 0 17 51 14 57 -3z"/>
<path d="M2075 960 c-35 -14 -48 -36 -35 -60 21 -39 61 -45 118 -17 36 17 29
55 -13 73 -39 16 -42 16 -70 4z"/>
<path d="M2242 963 c-12 -2 -30 -15 -39 -29 -14 -23 -14 -26 2 -44 41 -45 135
-27 135 26 0 19 -8 28 -35 40 -19 7 -36 13 -37 13 -2 -1 -13 -4 -26 -6z"/>
<path d="M1636 900 c-37 -11 -63 -35 -70 -66 -5 -19 -13 -24 -39 -24 -18 0
-42 -6 -52 -14 -16 -12 -17 -16 -6 -30 11 -13 38 -16 166 -16 128 0 155 3 166
16 21 25 -14 44 -82 44 -67 0 -87 16 -32 25 55 9 63 13 70 31 14 36 -52 54
-121 34z"/>
<path d="M2786 599 c-31 -25 -33 -40 -6 -64 27 -24 83 -24 110 0 19 17 21 17
38 2 28 -25 84 -22 110 6 28 29 28 42 0 61 -29 21 -87 20 -109 0 -16 -14 -20
-14 -48 0 -40 21 -63 20 -95 -5z"/>
<path d="M3142 600 c-28 -26 -28 -45 0 -64 34 -24 90 -20 117 7 25 28 20 50
-15 66 -38 17 -78 13 -102 -9z"/>
</g>
</svg>
